<svg xmlns="http://www.w3.org/2000/svg" width="25" height="25" fill="none"><path fill="url(#a)" d="M12.565 2.151a.695.695 0 0 0-.79.155.839.839 0 0 0-.213.769c.103.459.157.937.157 1.428 0 1.12-.283 1.905-.769 2.556-.494.661-1.209 1.2-2.112 1.808a.26.26 0 0 0-.04.032l-.109.11a7.031 7.031 0 1 0 10.088 2.74.26.26 0 0 0-.43-.053l-.215.252c-.915 1.07-1.654 1.932-3.167 2.317-.065.017-.105.005-.133-.013a.254.254 0 0 1-.095-.13.429.429 0 0 1 .077-.43c.81-.878 1.385-2.07 1.59-3.765.385-3.175-1.058-6.557-3.839-7.776Z"/><defs><linearGradient id="a" x1="12.5" x2="12.5" y1="2.089" y2="21.951" gradientUnits="userSpaceOnUse"><stop stop-color="#FFC736"/><stop offset="1" stop-color="#FF630C"/></linearGradient></defs></svg>