<svg xmlns="http://www.w3.org/2000/svg" width="112" height="37" fill="none"><g clip-path="url(#a)"><path fill="#fff" d="M74.132 12.582 68.225 36.38h9.584l6.144-24.796-9.821.997Zm31.595-1.045c-2.856-.278-7.313.595-9.516 2.26-.05-.912-.219-1.627-.415-2.36l-8.483 1.03c.337 2.348.005 4.954-.829 8.46l-3.8 15.455h9.584l3.923-15.77c.96-1.367 2.487-2.282 3.777-2.282 1.597 0 1.987 1.16 1.491 3.062l-3.682 14.99h9.584l4.113-16.28c.98-4.414-.465-8.05-5.747-8.565Z"/><path fill="#FFD300" d="M85.525 4.867c0-2.553-2.25-4.633-5.126-4.633-2.93 0-5.337 2.08-5.337 4.633 0 2.552 2.355 4.633 5.18 4.633 2.928 0 5.283-2.08 5.283-4.633Z"/><path fill="#fff" fill-rule="evenodd" d="m62.541 11.842-3.03 6.944a129.344 129.344 0 0 0-2.967 7.475l-.117-14.419h-8.65l-7.164 14.54.775-14.872-9.529 1.178 1.928 23.694h8.428s6.393-12.785 6.965-14.265l.086 14.265h8.647l14.268-24.54h-9.64Zm-41-.618c-2.488 0-4.351.646-5.449 1.252C17.66 7.66 18.01 3.214 18.01 3.214c.067-.721.082-1.58.063-2.146L8.028 2.278c.113 1.598-.124 4.123-1.414 9.517L1.766 31.674c-.22.951-.77 2.758-1.211 3.424 3.03.999 6.5 1.902 12.228 1.902 3.14 0 5.618-.57 8.153-2.045 4.351-2.52 7.038-7.058 8.15-11.461 2.078-8.23-1.32-12.27-7.545-12.27Zm-2.533 12.698c-1.102 4.565-2.535 6.61-4.958 6.61-.991 0-1.818-.238-2.258-.57l2.643-10.89c.496-.429 1.378-1.19 2.81-1.19 2.148 0 2.919 1.189 1.763 6.04Z" clip-rule="evenodd"/></g><defs><clipPath id="a"><path fill="#fff" d="M0 0h112v37H0z"/></clipPath></defs></svg>