<svg xmlns="http://www.w3.org/2000/svg" width="17" height="17" fill="none"><path fill="#0079F0" fill-rule="evenodd" d="M4.427 3.896A2.302 2.302 0 0 1 8.5 2.425a2.302 2.302 0 0 1 3.585 2.888h.665c.978 0 1.77.792 1.77 1.77v.886a.531.531 0 0 1-.53.531H9.244a.213.213 0 0 1-.213-.213V5.836a2.29 2.29 0 0 1-.531-.47 2.29 2.29 0 0 1-.531.47v2.451a.213.213 0 0 1-.213.213H3.01a.531.531 0 0 1-.53-.531v-.886c0-.978.792-1.77 1.77-1.77h.664a2.292 2.292 0 0 1-.487-1.417Zm3.542 0a1.24 1.24 0 1 0-2.48 0 1.24 1.24 0 0 0 2.48 0Zm1.062 0a1.24 1.24 0 1 0 2.48 0 1.24 1.24 0 0 0-2.48 0Z" clip-rule="evenodd"/><path fill="url(#a)" fill-rule="evenodd" d="M4.427 3.896A2.302 2.302 0 0 1 8.5 2.425a2.302 2.302 0 0 1 3.585 2.888h.665c.978 0 1.77.792 1.77 1.77v.886a.531.531 0 0 1-.53.531H9.244a.213.213 0 0 1-.213-.213V5.836a2.29 2.29 0 0 1-.531-.47 2.29 2.29 0 0 1-.531.47v2.451a.213.213 0 0 1-.213.213H3.01a.531.531 0 0 1-.53-.531v-.886c0-.978.792-1.77 1.77-1.77h.664a2.292 2.292 0 0 1-.487-1.417Zm3.542 0a1.24 1.24 0 1 0-2.48 0 1.24 1.24 0 0 0 2.48 0Zm1.062 0a1.24 1.24 0 1 0 2.48 0 1.24 1.24 0 0 0-2.48 0Z" clip-rule="evenodd"/><path fill="#0079F0" d="M7.969 9.669a.213.213 0 0 0-.213-.213H4.001a.59.59 0 0 0-.581.49 8.212 8.212 0 0 0 0 2.774l.159.927a1.422 1.422 0 0 0 1.243 1.173l.755.085c.723.08 1.449.131 2.175.152a.211.211 0 0 0 .217-.212V9.67Z"/><path fill="url(#b)" d="M7.969 9.669a.213.213 0 0 0-.213-.213H4.001a.59.59 0 0 0-.581.49 8.212 8.212 0 0 0 0 2.774l.159.927a1.422 1.422 0 0 0 1.243 1.173l.755.085c.723.08 1.449.131 2.175.152a.211.211 0 0 0 .217-.212V9.67Z"/><path fill="#0079F0" d="M9.248 15.057a.211.211 0 0 1-.217-.212V9.67c0-.118.095-.213.213-.213h3.755a.59.59 0 0 1 .581.49 8.21 8.21 0 0 1 0 2.774l-.159.927a1.422 1.422 0 0 1-1.243 1.173l-.755.085c-.723.08-1.449.131-2.175.152Z"/><path fill="url(#c)" d="M9.248 15.057a.211.211 0 0 1-.217-.212V9.67c0-.118.095-.213.213-.213h3.755a.59.59 0 0 1 .581.49 8.21 8.21 0 0 1 0 2.774l-.159.927a1.422 1.422 0 0 1-1.243 1.173l-.755.085c-.723.08-1.449.131-2.175.152Z"/><defs><linearGradient id="a" x1="8.5" x2="8.5" y1="1.594" y2="15.057" gradientUnits="userSpaceOnUse"><stop stop-color="#F90"/><stop offset="1" stop-color="#FF630C"/></linearGradient><linearGradient id="b" x1="8.5" x2="8.5" y1="1.594" y2="15.057" gradientUnits="userSpaceOnUse"><stop stop-color="#F90"/><stop offset="1" stop-color="#FF630C"/></linearGradient><linearGradient id="c" x1="8.5" x2="8.5" y1="1.594" y2="15.057" gradientUnits="userSpaceOnUse"><stop stop-color="#F90"/><stop offset="1" stop-color="#FF630C"/></linearGradient></defs></svg>